<?xml version="1.0" encoding="utf-8"?>
<!-- Generator: Adobe Illustrator 20.1.0, SVG Export Plug-In . SVG Version: 6.00 Build 0)  -->
<svg version="1.2" baseProfile="tiny" id="Layer_1" xmlns="http://www.w3.org/2000/svg" xmlns:xlink="http://www.w3.org/1999/xlink"
	 x="0px" y="0px" viewBox="0 0 200 224" overflow="scroll" xml:space="preserve">
<path fill="#1B5E20" d="M99.6,80.4c1.1-0.3,2.1-0.5,3.1-0.7c0.3,0.1,0.5,0.1,0.8,0.2c-0.1-0.1-0.1-0.2-0.2-0.3
	c0.7-0.2,1.3-0.3,2-0.5c2.5,1.7,4.7,3.4,6.6,5.2c2.8,2.8,4.7,5.8,5.8,9.3c1.1,3.4,1.5,7.3,1.5,11.5c0,4.2-0.4,8.5-0.5,13.4
	c3.3-3.5,5.7-7.7,7.1-12.4c1.3-4.7,1.7-10,0-15.1c-1.6-5.1-5.4-9.6-9.9-12c-1-0.5-1.9-0.9-2.9-1.3c4.8-0.8,9.5-1.2,14-1.2
	c8.7,0,16.4,1.8,23.5,5.5c7.1,3.6,13.7,9.1,20.2,15.6c6.5,6.5,12.7,14,20,21.6c-0.3-10.6-3.1-20.8-8.3-30.2
	c-5.1-9.4-13-18.2-23.5-23.5c-10.5-5.5-23.3-6.5-34.1-3.3c-9,2.6-16.9,7.6-22.7,14.4c-0.1,0-0.2,0-0.4,0c0.1,0,0.1,0.1,0.2,0.2
	c-0.1,0.1-0.2,0.3-0.4,0.4c0-0.1-0.1-0.1-0.1-0.2c0.3-0.7,0.7-1.3,1.1-1.9c7.1-7.1,14-13,21.2-17.3c7.4-4.5,15-6.9,22.9-7.4
	c7.9-0.6,16.4,0.7,25.3,2.9c8.9,2.2,18.1,5.4,28.3,8.1c-5.7-8.9-13.4-16.2-22.7-21.6c-9.2-5.3-20.5-8.8-32.3-7.9
	c-11.8,0.7-23.3,6.5-30.9,14.8c-2.4,2.6-4.5,5.5-6.3,8.5c0.2-1.8,0.4-3.5,0.4-5.4c0-11.2-4.8-23.2-13-31.7C87.1,9.5,76.4,4.6,66,2.4
	c-10.5-2.2-21.1-2-31.3,0.8c9.4,4.8,18.4,8.5,26.5,12.9c8.1,4.3,15.3,9.1,20.8,14.8c5.5,5.7,9.5,12.6,12,20.9
	c2.1,6.7,3.2,14,3.8,22.1c-1.7-8.2-5.7-16-11.6-22.5c-7.5-8.4-19-14.2-30.8-15.1c-11.8-1-23.1,2.4-32.4,7.7
	C13.7,49.3,5.9,56.4,0.2,65.3c10.3-2.6,19.4-5.8,28.4-7.9c8.9-2.2,17.4-3.3,25.4-2.7c7.9,0.6,15.4,3.1,22.8,7.6
	c3.9,2.3,7.6,5.2,11.4,8.4c-4-0.4-8.2,0.3-11.8,2.2c-4.8,2.4-8.4,6.4-10.7,10.7c-2.3,4.3-3.6,8.9-3.8,13.7c3.3-3.4,6.1-6.9,9.1-9.8
	c2.9-3,5.9-5.4,9.2-7.1c3.2-1.6,6.7-2.5,10.6-2.5c1.6,0,3.3,0.2,5,0.4"/>
<path fill="#3E2723" d="M96.9,74.9c-3.4,4.7-6.6,9.6-9.5,14.7c-6.7,11.9-12,24.6-16.4,37.5s-8,26.2-10.9,39.6
	c-2.9,13.5-3.2,38.9-4.7,53.3l30.9,0c-1.2-12.2-3.5-37.7-3.2-50.5c0.3-12.9,1.2-25.9,2.9-38.8c1.8-12.9,4.4-25.6,8.4-38
	c1.8-5.4,3.9-10.7,6.3-15.8L96.9,74.9z"/>
<g>
	<ellipse fill="#41352C" cx="94.1" cy="72.6" rx="6.8" ry="7.3"/>
	<ellipse fill="#41352C" cx="104.2" cy="77.4" rx="6.8" ry="7.3"/>
</g>
</svg>
