<?xml version="1.0" encoding="utf-8"?>
<!-- Generator: Adobe Illustrator 20.1.0, SVG Export Plug-In . SVG Version: 6.00 Build 0)  -->
<svg version="1.2" baseProfile="tiny" id="Layer_1" xmlns="http://www.w3.org/2000/svg" xmlns:xlink="http://www.w3.org/1999/xlink"
	 x="0px" y="0px" viewBox="0 0 260 115" overflow="scroll" xml:space="preserve">
<path fill="#00ACC1" d="M260,115H0V9.6c5-1.4,32.4,9.6,59.7,0c19.1-6.7,45.6-14,70.3,0c21.1,11.9,45.1,8.7,65.8,0
	c21.1-8.9,43.6-4.9,64.2,0V115z"/>
<path fill="none" stroke="#00838F" stroke-miterlimit="10" d="M0,9.8c5.7,0,18.4,3.1,20.2,3.3c17.6,2.1,28.3,0.9,39.5-3.3
	C84.3-0.1,107.9-2,130,9.8c21.2,10.7,43.1,10,65.8,0c20.6-7.7,42.2-6.4,64.2,0"/>
</svg>
