<?xml version="1.0" encoding="utf-8"?>
<!-- Generator: Adobe Illustrator 20.1.0, SVG Export Plug-In . SVG Version: 6.00 Build 0)  -->
<svg version="1.2" baseProfile="tiny" id="Layer_1" xmlns="http://www.w3.org/2000/svg" xmlns:xlink="http://www.w3.org/1999/xlink"
	 x="0px" y="0px" viewBox="0 0 260 200" overflow="scroll" xml:space="preserve">
<g>
	<rect x="0" y="154.3" fill="#5D4037" width="260" height="45.7"/>
	<rect x="0" y="0" fill="#81D4FA" width="260" height="154.3"/>
</g>
<g>
	<path fill="#9CCC65" d="M135.8,155c-0.3,0-0.5,0-0.7,0c-3.7,0-7.4,0-11,0c-0.5,0-0.7,0-0.6-0.7c0.8-4.8,1.6-9.6,2.5-14.4
		c0.1-0.6-0.2-0.5-0.5-0.5c-2.6,0-5.2,0-7.8,0c-6.1,0.1-10.5-3.8-12.1-8.2c-2.2-5.9,0.3-12.4,5.9-15.4c0.4-0.2,0.6-0.4,0.3-0.9
		c-2.6-5.9,1.4-12.6,7.8-13.1c0.6,0,0.8-0.2,0.8-0.8c0.4-4.7,4.2-8.5,8.9-8.6c4.8-0.2,8.9,3.2,9.7,7.9c0.1,0.5-0.1,1.1,0.3,1.4
		c0.3,0.2,0.9,0.1,1.4,0.2c6,1.1,9.5,7.3,7.1,12.9c-0.2,0.5-0.1,0.7,0.4,1c4.8,2.5,7.4,7.8,6.5,13.1c-0.9,5.2-5,9.4-10.3,10.3
		c-1.3,0.2-2.6,0.2-3.9,0.2c-2.2,0-4.3,0-6.5,0c-0.4,0-0.6,0-0.5,0.6c0.8,4.9,1.7,9.7,2.5,14.6C135.7,154.7,135.7,154.9,135.8,155z"
		/>
	<path fill="#9CCC65" d="M215.5,155.5c-0.3,0-0.5,0-0.7,0c-3.7,0-7.4,0-11,0c-0.5,0-0.7,0-0.6-0.7c0.8-4.8,1.6-9.6,2.5-14.4
		c0.1-0.6-0.2-0.5-0.5-0.5c-2.6,0-5.2,0-7.8,0c-6.1,0.1-10.5-3.8-12.1-8.2c-2.2-5.9,0.3-12.4,5.9-15.4c0.4-0.2,0.6-0.4,0.3-0.9
		c-2.6-5.9,1.4-12.6,7.8-13.1c0.6,0,0.8-0.2,0.8-0.8c0.4-4.7,4.2-8.5,8.9-8.6c4.8-0.2,8.9,3.2,9.7,7.9c0.1,0.5-0.1,1.1,0.3,1.4
		c0.3,0.2,0.9,0.1,1.4,0.2c6,1.1,9.5,7.3,7.1,12.9c-0.2,0.5-0.1,0.7,0.4,1c4.8,2.5,7.4,7.8,6.5,13.1c-0.9,5.2-5,9.4-10.3,10.3
		c-1.3,0.2-2.6,0.2-3.9,0.2c-2.2,0-4.3,0-6.5,0c-0.4,0-0.6,0-0.5,0.6c0.8,4.9,1.7,9.7,2.5,14.6C215.4,155.2,215.4,155.3,215.5,155.5
		z"/>
	<path fill="#9CCC65" d="M34.3,155.5c-0.3,0-0.5,0-0.7,0c-3.7,0-7.4,0-11,0c-0.5,0-0.7,0-0.6-0.7c0.8-4.8,1.6-9.6,2.5-14.4
		c0.1-0.6-0.2-0.5-0.5-0.5c-2.6,0-5.2,0-7.8,0c-6.1,0.1-10.5-3.8-12.1-8.2c-2.2-5.9,0.3-12.4,5.9-15.4c0.4-0.2,0.6-0.4,0.3-0.9
		c-2.6-5.9,1.4-12.6,7.8-13.1c0.6,0,0.8-0.2,0.8-0.8c0.4-4.7,4.2-8.5,8.9-8.6c4.8-0.2,8.9,3.2,9.7,7.9c0.1,0.5-0.1,1.1,0.3,1.4
		c0.3,0.2,0.9,0.1,1.4,0.2c6,1.1,9.5,7.3,7.1,12.9c-0.2,0.5-0.1,0.7,0.4,1c4.8,2.5,7.4,7.8,6.5,13.1c-0.9,5.2-5,9.4-10.3,10.3
		c-1.3,0.2-2.6,0.2-3.9,0.2c-2.2,0-4.3,0-6.5,0c-0.4,0-0.6,0-0.5,0.6c0.8,4.9,1.7,9.7,2.5,14.6C34.3,155.2,34.3,155.3,34.3,155.5z"
		/>
</g>
<path fill="#616161" d="M56.6,132.7c0,0,0-0.1,0-0.1c0-1.3,1-2.3,2.3-2.3c0.8,0,1.7,0,2.5,0c0.4,0,0.5-0.1,0.6-0.5
	c1-6.3,6-11.5,12.3-12.7c2.2-0.4,4.5-0.4,6.7-0.3c4.5,0.1,8.3,1.9,11.3,5.3c2.2,2.4,3.4,5.3,3.8,8.5c0,0.3,0.1,0.5,0.4,0.7
	c5.1,3,7.8,7.4,8.1,13.3c0,0.3,0.1,0.4,0.4,0.5c1.3,0.5,1.9,1.7,1.7,2.9c-0.2,1.2-1.3,2.1-2.6,2.1c-1,0-2.1,0-3.1,0
	c-0.4,0-0.5,0.1-0.6,0.5c-0.6,4.4-4.9,7.5-9.2,6.7c-3.3-0.7-5.7-3.2-6.2-6.6c-0.1-0.4-0.2-0.6-0.6-0.6c-1.9,0-3.7,0-5.6,0
	c-1.1,0-1.1,0-1.3,1c0,0.1,0,0.1,0,0.2c-0.9,4-4.7,6.5-8.9,5.9c-3.8-0.5-6.8-4.2-6.5-8.1c0-0.4-0.1-0.5-0.4-0.7
	c-2.7-1.7-4.3-4.2-4.7-7.3c-0.2-1.5,0-3.1-0.1-4.3C56.6,135.3,56.6,134,56.6,132.7z M81.6,131.9c0,0.4,0.1,0.5,0.5,0.5
	c2.8,0,5.6,0,8.4,0c0.4,0,0.5-0.1,0.5-0.5c-0.3-5-4-9-8.9-9.8c-0.4-0.1-0.5,0-0.5,0.4c0,1.6,0,3.2,0,4.8
	C81.6,128.8,81.6,130.3,81.6,131.9z M76.4,122.5c0-0.3,0-0.5-0.4-0.4c-4.8,0.6-8.8,5-8.9,9.8c0,0.4,0.1,0.6,0.5,0.6
	c2.8,0,5.5,0,8.3,0c0.5,0,0.6-0.1,0.6-0.6c0-1.5,0-3.1,0-4.6C76.4,125.6,76.4,124,76.4,122.5z M95.1,149.6c0-1.5-1.2-2.6-2.6-2.6
	c-1.4,0-2.6,1.2-2.6,2.6c0,1.4,1.2,2.6,2.6,2.6C94,152.1,95.1,151,95.1,149.6z M67,149.5c0,1.5,1.1,2.6,2.6,2.6
	c1.4,0,2.6-1.2,2.6-2.6c0-1.4-1.1-2.6-2.6-2.6C68.2,147,67,148.1,67,149.5z"/>
<g>
	<path fill="#FFFFFF" d="M3.1,61.8c0,6.3,5.1,11.5,11.5,11.5h27.1c6.3,0,11.5-5.1,11.5-11.5c0-4.9-3-9-7.3-10.7l0-0.3
		c0-6.6-5.4-12-12-12c-4.2,0-7.9,2.1-10,5.4c-1.2-0.8-2.6-1.2-4.1-1.2c-4,0-7.3,3.3-7.3,7.3v0.2C7.1,51.5,3.1,56.2,3.1,61.8z"/>
	<path fill="#FFFFFF" d="M65.5,34.2c0,6.3,5.1,11.5,11.5,11.5H104c6.3,0,11.5-5.1,11.5-11.5c0-4.9-3-9-7.3-10.7l0-0.3
		c0-6.6-5.4-12-12-12c-4.2,0-7.9,2.1-10,5.4c-1.2-0.8-2.6-1.2-4.1-1.2c-4,0-7.3,3.3-7.3,7.3v0.2C69.5,23.9,65.5,28.6,65.5,34.2z"/>
	<path fill="#FFFFFF" d="M134,57.4c0,6.3,5.1,11.5,11.5,11.5h27.1c6.3,0,11.5-5.1,11.5-11.5c0-4.9-3-9-7.3-10.7l0-0.3
		c0-6.6-5.4-12-12-12c-4.2,0-7.9,2.1-10,5.4c-1.2-0.8-2.6-1.2-4.1-1.2c-4,0-7.3,3.3-7.3,7.3v0.2C138.1,47.1,134,51.8,134,57.4z"/>
	<path fill="#FFFFFF" d="M207.4,44.6c0,6.3,5.1,11.5,11.5,11.5H246c6.3,0,11.5-5.1,11.5-11.5c0-4.9-3-9-7.3-10.7l0-0.3
		c0-6.6-5.4-12-12-12c-4.2,0-7.9,2.1-10,5.4c-1.2-0.8-2.6-1.2-4.1-1.2c-4,0-7.3,3.3-7.3,7.3v0.2C211.5,34.3,207.4,39,207.4,44.6z"/>
</g>
</svg>
