<?xml version="1.0" encoding="utf-8"?>
<!-- Generator: Adobe Illustrator 20.1.0, SVG Export Plug-In . SVG Version: 6.00 Build 0)  -->
<svg version="1.2" baseProfile="tiny" id="Layer_1" xmlns="http://www.w3.org/2000/svg" xmlns:xlink="http://www.w3.org/1999/xlink"
	 x="0px" y="0px" viewBox="0 0 200 200" xml:space="preserve">
<circle fill="#FFD740" cx="100" cy="100" r="60"/>
<g>
	<polygon fill="#FFC400" points="135.2,161.5 120.9,167.4 133.2,176.9 	"/>
	<polygon fill="#FFC400" points="67.1,39.6 81.5,33.8 69.3,24.2 	"/>
	<polygon fill="#FFC400" points="119.3,34.4 133.4,40.9 132,25.4 	"/>
	<polygon fill="#FFC400" points="80.9,167.2 67.1,160.1 67.8,175.6 	"/>
	<polygon fill="#FFC400" points="159.4,65.4 166.4,79.3 174.9,66.3 	"/>
	<polygon fill="#FFC400" points="42.1,134.6 35.3,120.6 26.6,133.5 	"/>
	<polygon fill="#FFC400" points="167,120.5 160.4,134.5 175.8,133.2 	"/>
	<polygon fill="#FFC400" points="33.8,80.5 39.6,66.1 24.3,68.3 	"/>
</g>
<g>
	<polygon fill="#FF9100" points="92.9,31.9 108.4,31.9 100.7,18.5 	"/>
	<polygon fill="#FF9100" points="108.4,168.1 92.9,168.1 100.7,181.5 	"/>
	<polygon fill="#FF9100" points="143.1,46.6 154.1,57.5 158.1,42.5 	"/>
	<polygon fill="#FF9100" points="57.4,154.2 46.4,143.3 42.4,158.3 	"/>
	<polygon fill="#FF9100" points="168.7,92.2 168.7,107.8 182.2,100 	"/>
	<polygon fill="#FF9100" points="32.6,107.8 32.6,92.2 19.1,100 	"/>
	<polygon fill="#FF9100" points="156.1,144.5 145.1,155.4 160.1,159.5 	"/>
	<polygon fill="#FF9100" points="45.4,55.7 56.4,44.8 41.4,40.7 	"/>
</g>
</svg>
